<svg xmlns="http://www.w3.org/2000/svg" viewBox="0 0 512 512" width="512" height="512">
  <defs>
    <rect id="bg" width="512" height="512" rx="120" fill="#181425" />

    <linearGradient id="cuteBloom" x1="0%" y1="0%" x2="100%" y2="100%">
      <stop offset="0%" style="stop-color:#ffb3c6;stop-opacity:1" />
      <stop offset="50%" style="stop-color:#ff8fab;stop-opacity:1" />
      <stop offset="100%" style="stop-color:#c8b6ff;stop-opacity:1" />
    </linearGradient>

    <filter id="softShadow" x="-10%" y="-10%" width="120%" height="120%">
      <feDropShadow dx="0" dy="12" stdDeviation="16" flood-color="#000000" flood-opacity="0.35" />
    </filter>
  </defs>

  <use href="#bg" />

  <g filter="url(#softShadow)" transform="translate(0, 5)">
    <path d="M 256,110 
             C 290,110 320,130 335,160 
             C 380,145 425,180 415,225 
             C 410,245 395,260 385,275
             C 395,330 345,385 295,365 
             C 275,355 266,335 256,335 
             C 246,335 237,355 217,365 
             C 167,385 117,330 127,275 
             C 117,260 102,245 97,225 
             C 87,180 132,145 177,160 
             C 192,130 222,110 256,110 Z" 
          fill="url(#cuteBloom)" />

    <g fill="#2b1e3a">
      <path d="M 218,232 Q 226,222 234,232" fill="none" stroke="#2b1e3a" stroke-width="4.5" stroke-linecap="round" />
      <path d="M 278,232 Q 286,222 294,232" fill="none" stroke="#2b1e3a" stroke-width="4.5" stroke-linecap="round" />
      <path d="M 250,242 Q 256,248 262,242" fill="none" stroke="#2b1e3a" stroke-width="3.5" stroke-linecap="round" />
    </g>

    <circle cx="210" cy="242" r="8" fill="#ff4d6d" opacity="0.4" />
    <circle cx="302" cy="242" r="8" fill="#ff4d6d" opacity="0.4" />

    <g transform="translate(160, 235)">
      <rect x="-5" y="-16" width="10" height="32" rx="5" fill="#ffffff" opacity="0.9" />
      <rect x="-16" y="-5" width="32" height="10" rx="5" fill="#ffffff" opacity="0.9" />
    </g>

    <g transform="translate(352, 235)">
      <circle cx="0" cy="-12" r="5" fill="#ffffff" opacity="0.9" />
      <circle cx="12" cy="0" r="5" fill="#ffffff" opacity="0.9" />
      <circle cx="0" cy="12" r="5" fill="#ffffff" opacity="0.9" />
      <circle cx="-12" cy="0" r="5" fill="#ffffff" opacity="0.9" />
    </g>

    <path d="M 256,105 C 256,80 280,75 285,75 C 285,95 265,105 256,105 Z" fill="#b5e7a0" />
  </g>

  <path d="M 190,420 C 220,420 230,405 240,405 C 250,405 255,430 265,430 C 275,430 285,420 322,420" 
        fill="none" stroke="#b8c0ff" stroke-width="4" stroke-linecap="round" opacity="0.6" />
</svg>